<!-- Copyright (c) Microsoft. All rights reserved. -->

<svg width="68" height="53" viewBox="0 0 68 53" fill="none" xmlns="http://www.w3.org/2000/svg">
<path d="M2 2H68V52.375H2V2ZM63.875 5.875H6.125V13.625H63.875V5.875ZM6.125 48.5H63.875V17.5H6.125V48.5Z" fill="#E5E5E5"/>
<path d="M29.6543 44.582C28.4421 44.5729 27.4531 44.4089 26.6875 44.0898C25.931 43.7799 25.3704 43.2786 25.0059 42.5859C24.6413 41.8932 24.459 40.9772 24.459 39.8379V36.2832C24.459 34.5514 23.7617 33.6719 22.3672 33.6445V31.4434C23.7617 31.3978 24.459 30.4863 24.459 28.709V25.3457C24.459 24.1973 24.6413 23.2721 25.0059 22.5703C25.3704 21.8594 25.931 21.3444 26.6875 21.0254C27.444 20.6973 28.4329 20.5286 29.6543 20.5195V22.8027C28.196 22.8118 27.4668 23.6413 27.4668 25.291V28.5723C27.4668 30.6686 26.7741 31.9811 25.3887 32.5098V32.5645C26.7741 33.0658 27.4668 34.3874 27.4668 36.5293V39.7148C27.4668 40.6445 27.6354 41.3053 27.9727 41.6973C28.3099 42.0892 28.8704 42.2897 29.6543 42.2988V44.582ZM39.3887 44.582C40.6009 44.5729 41.5853 44.4089 42.3418 44.0898C43.1074 43.7799 43.6725 43.2786 44.0371 42.5859C44.4017 41.8932 44.584 40.9772 44.584 39.8379V36.2832C44.584 34.5514 45.2812 33.6719 46.6758 33.6445V31.4434C45.2812 31.3978 44.584 30.4863 44.584 28.709V25.3457C44.584 24.1973 44.4017 23.2721 44.0371 22.5703C43.6725 21.8594 43.112 21.3444 42.3555 21.0254C41.599 20.6973 40.61 20.5286 39.3887 20.5195V22.8027C40.847 22.8118 41.5762 23.6413 41.5762 25.291V28.5723C41.5762 30.6686 42.2689 31.9811 43.6543 32.5098V32.5645C42.2689 33.0658 41.5762 34.3874 41.5762 36.5293V39.7148C41.5762 40.6445 41.4076 41.3053 41.0703 41.6973C40.7331 42.0892 40.1725 42.2897 39.3887 42.2988V44.582Z" fill="#E5E5E5"/>
<path d="M0 0H66V50.375H0V0ZM61.875 3.875H4.125V11.625H61.875V3.875ZM4.125 46.5H61.875V15.5H4.125V46.5Z" fill="black"/>
<path d="M27.6543 42.582C26.4421 42.5729 25.4531 42.4089 24.6875 42.0898C23.931 41.7799 23.3704 41.2786 23.0059 40.5859C22.6413 39.8932 22.459 38.9772 22.459 37.8379V34.2832C22.459 32.5514 21.7617 31.6719 20.3672 31.6445V29.4434C21.7617 29.3978 22.459 28.4863 22.459 26.709V23.3457C22.459 22.1973 22.6413 21.2721 23.0059 20.5703C23.3704 19.8594 23.931 19.3444 24.6875 19.0254C25.444 18.6973 26.4329 18.5286 27.6543 18.5195V20.8027C26.196 20.8118 25.4668 21.6413 25.4668 23.291V26.5723C25.4668 28.6686 24.7741 29.9811 23.3887 30.5098V30.5645C24.7741 31.0658 25.4668 32.3874 25.4668 34.5293V37.7148C25.4668 38.6445 25.6354 39.3053 25.9727 39.6973C26.3099 40.0892 26.8704 40.2897 27.6543 40.2988V42.582ZM37.3887 42.582C38.6009 42.5729 39.5853 42.4089 40.3418 42.0898C41.1074 41.7799 41.6725 41.2786 42.0371 40.5859C42.4017 39.8932 42.584 38.9772 42.584 37.8379V34.2832C42.584 32.5514 43.2812 31.6719 44.6758 31.6445V29.4434C43.2812 29.3978 42.584 28.4863 42.584 26.709V23.3457C42.584 22.1973 42.4017 21.2721 42.0371 20.5703C41.6725 19.8594 41.112 19.3444 40.3555 19.0254C39.599 18.6973 38.61 18.5286 37.3887 18.5195V20.8027C38.847 20.8118 39.5762 21.6413 39.5762 23.291V26.5723C39.5762 28.6686 40.2689 29.9811 41.6543 30.5098V30.5645C40.2689 31.0658 39.5762 32.3874 39.5762 34.5293V37.7148C39.5762 38.6445 39.4076 39.3053 39.0703 39.6973C38.7331 40.0892 38.1725 40.2897 37.3887 40.2988V42.582Z" fill="#E26C41"/>
</svg>
