<!-- Copyright (c) Microsoft. All rights reserved. -->

<svg width="66" height="52" viewBox="0 0 66 52" fill="none" xmlns="http://www.w3.org/2000/svg">
<path d="M2 52V2H66V52H2ZM6 47.8333H62V6.16667H6V47.8333ZM10 10.3333H58V22.8333H10V10.3333ZM14 18.6667H54V14.5H14V18.6667ZM58 43.6667H42V27H58V43.6667ZM54 31.1667H46V39.5H54V31.1667ZM10 27H34V31.1667H10V27ZM10 39.5H34V43.6667H10V39.5Z" fill="#E5E5E5"/>
<path d="M0 50V0H64V50H0ZM4 45.8333H60V4.16667H4V45.8333ZM8 8.33334H56V20.8333H8V8.33334ZM12 16.6667H52V12.5H12V16.6667ZM56 41.6667H40V25H56V41.6667ZM8 25H32V29.1667H8V25ZM8 37.5H32V41.6667H8V37.5Z" fill="#333333"/>
<path d="M40.5 41L45 32.5L48 38L52 29.5L54.5 32.5" stroke="#FFB901" stroke-width="2"/>
<rect x="8" y="25" width="24" height="5" fill="#FFB901"/>
<rect x="8" y="37" width="24" height="5" fill="#FFB901"/>
</svg>
