<!-- Copyright (c) Microsoft. All rights reserved. -->

<svg width="21" height="21" viewBox="0 0 21 21" fill="none" xmlns="http://www.w3.org/2000/svg">
<path d="M10.5 17.7188C14.4868 17.7188 17.7188 14.4868 17.7188 10.5C17.7188 6.51319 14.4868 3.28125 10.5 3.28125C6.51319 3.28125 3.28125 6.51319 3.28125 10.5C3.28125 14.4868 6.51319 17.7188 10.5 17.7188Z" stroke="#CDE6F7"/>
<path d="M10.5 17.7188C14.4868 17.7188 17.7188 14.4868 17.7188 10.5C17.7188 6.51319 14.4868 3.28125 10.5 3.28125C6.51319 3.28125 3.28125 6.51319 3.28125 10.5C3.28125 14.4868 6.51319 17.7188 10.5 17.7188Z" stroke="#00BDFF" stroke-opacity="0.44"/>
<mask id="mask0" mask-type="alpha" maskUnits="userSpaceOnUse" x="2" y="2" width="17" height="17">
<path d="M10.5 17.7188C14.4868 17.7188 17.7188 14.4868 17.7188 10.5C17.7188 6.51319 14.4868 3.28125 10.5 3.28125C6.51319 3.28125 3.28125 6.51319 3.28125 10.5C3.28125 14.4868 6.51319 17.7188 10.5 17.7188Z" stroke="#136BFB"/>
</mask>
<g mask="url(#mask0)">
<rect x="10.5" y="-1.3125" width="17.0625" height="11.8125" fill="#136BFB"/>
</g>
</svg>
