<svg xmlns="http://www.w3.org/2000/svg" viewBox="0 0 32.464 21.469">
  <defs>
    <style>
      .cls-1 {
        fill: #fff;
      }
    </style>
  </defs>
  <g id="Group_5590" data-name="Group 5590" transform="translate(-4744 1340)">
    <path id="E791" class="cls-1" d="M17.222-13.478a6.52,6.52,0,0,1,2.621.532A6.843,6.843,0,0,1,21.984-11.5,6.843,6.843,0,0,1,23.429-9.36a6.52,6.52,0,0,1,.532,2.621,6.52,6.52,0,0,1-.532,2.621,6.843,6.843,0,0,1-1.445,2.141A6.843,6.843,0,0,1,19.843-.532,6.52,6.52,0,0,1,17.222,0,6.52,6.52,0,0,1,14.6-.532,6.843,6.843,0,0,1,12.46-1.977a6.843,6.843,0,0,1-1.445-2.141,6.52,6.52,0,0,1-.532-2.621,6.52,6.52,0,0,1,.532-2.621A6.843,6.843,0,0,1,12.46-11.5,6.843,6.843,0,0,1,14.6-12.946a6.52,6.52,0,0,1,2.621-.532m0,11.981a5.056,5.056,0,0,0,2.042-.415,5.34,5.34,0,0,0,1.661-1.123A5.34,5.34,0,0,0,22.049-4.7a5.056,5.056,0,0,0,.415-2.042,5.056,5.056,0,0,0-.415-2.042,5.34,5.34,0,0,0-1.123-1.661,5.34,5.34,0,0,0-1.661-1.123,5.056,5.056,0,0,0-2.042-.415,5.056,5.056,0,0,0-2.042.415,5.34,5.34,0,0,0-1.661,1.123A5.34,5.34,0,0,0,12.4-8.781a5.056,5.056,0,0,0-.415,2.042A5.056,5.056,0,0,0,12.4-4.7a5.34,5.34,0,0,0,1.123,1.661,5.34,5.34,0,0,0,1.661,1.123,5.056,5.056,0,0,0,2.042.415M20.966-5.99H13.478v-1.5h7.488" transform="translate(4752.502 -1318.531)"/>
    <path id="EB43" class="cls-1" d="M1.5-4.493l15.151.02.509,1.5L0-3V-20.966H1.5v5.16L7.64-18.884l3.978,3.978,5.37,1.345,5.7-5.686,1.053,1.053L17.456-11.9l-6.611-1.65-3.51-3.51L1.5-14.145v3.475l6.084-1.345,6.072,3.03h3.308l-.313,1.5H13.3l-5.908-2.96L1.5-9.138Z" transform="translate(4744 -1319.034)"/>
  </g>
</svg>
