<!-- Copyright (c) Microsoft. All rights reserved. -->

<svg xmlns="http://www.w3.org/2000/svg" width="24" height="24" viewBox="0 0 24 24"><path transform="scale(0.0117,-0.0117) translate(2, -2050)" d="M1115 1115Q1076 1152 1024 1152Q972 1152 934 1114Q896 1076 896 1024Q896 970 933 933Q970 896 1024 896Q1078 896 1114 934Q1152 972 1152 1024Q1152 1076 1115 1115M925.50 1260.50Q925.50 1260.50 948.75 1270.25Q972 1280 1024 1280Q1076 1280 1122.50 1260.50Q1169 1241 1205 1205Q1241 1169 1260.50 1122.50Q1280 1076 1280 1024Q1280 972 1260.50 925.50Q1241 879 1205 843Q1169 807 1122.50 787.50Q1076 768 1024 768Q972 768 925.50 787.50Q879 807 843 843Q807 879 787.50 925.50Q768 972 768 1024Q768 1076 787.50 1122.50Q807 1169 843 1205Q879 1241 925.50 1260.50M1792 128L1792 0L1280 0L1280 512L1408 512L1408 215Q1639 323 1779 544Q1920 766 1920 1017Q1920 1268 1799 1472Q1678 1677 1476 1798Q1267 1920 1023.50 1920Q780 1920 576 1800Q373 1680 251 1473Q128 1265 128 1024Q128 725 312 482.50Q496 240 785 161L751 38Q421 127 211 403Q0 679 0 1024Q0 1302 137 1537Q274 1772 511 1910Q748 2048 1024 2048Q1300 2048 1537 1910Q1773 1772 1910 1537Q2048 1301 2048 1024Q2048 747 1904 503Q1760 259 1518 128L1792 128Z"/></svg>
