<!-- Copyright (c) Microsoft. All rights reserved. -->

<svg xmlns="http://www.w3.org/2000/svg" viewBox="-24780 -23131 16 14.934">
  <path id="Sim_logo" data-name="Sim logo" class="cls-1" d="M14.4-20.331a1.57,1.57,0,0,1,.625.125,1.605,1.605,0,0,1,.508.342,1.605,1.605,0,0,1,.342.508,1.57,1.57,0,0,1,.125.625v7.467a1.57,1.57,0,0,1-.125.625,1.605,1.605,0,0,1-.342.508,1.605,1.605,0,0,1-.508.342,1.57,1.57,0,0,1-.625.125h-.533v2.133H12.8V-9.664H11.733v2.133H10.667V-9.664H9.6v2.133H8.533V-9.664H7.467v2.133H6.4V-9.664H5.333v2.133H4.267V-9.664H3.2v2.133H2.133V-9.664H1.6a1.57,1.57,0,0,1-.625-.125,1.605,1.605,0,0,1-.508-.342,1.605,1.605,0,0,1-.342-.508A1.57,1.57,0,0,1,0-11.264v-7.467a1.57,1.57,0,0,1,.125-.625,1.605,1.605,0,0,1,.342-.508,1.605,1.605,0,0,1,.508-.342,1.57,1.57,0,0,1,.625-.125h.533v-2.133H3.2v2.133H4.267v-2.133H5.333v2.133H6.4v-2.133H7.467v2.133H8.533v-2.133H9.6v2.133h1.067v-2.133h1.067v2.133H12.8v-2.133h1.067v2.133H14.4m.533,1.6a.513.513,0,0,0-.158-.375.513.513,0,0,0-.375-.158H1.6a.513.513,0,0,0-.375.158.513.513,0,0,0-.158.375v7.467a.513.513,0,0,0,.158.375.513.513,0,0,0,.375.158H14.4a.513.513,0,0,0,.375-.158.513.513,0,0,0,.158-.375v-7.467m-12.8.533H13.867v6.4H2.133v-6.4M3.2-12.864h9.6v-4.267H3.2Z" transform="translate(-24780 -23108.536)"/>
</svg>
